<svg xmlns="http://www.w3.org/2000/svg" viewBox="0 0 2386.56 978.3"><g id="Capa_2" data-name="Capa 2"><g id="Capa_1-2" data-name="Capa 1"><g style="isolation:isolate"><polygon points="400.12 978.3 13.96 904.61 0 49.11 386.16 122.81 400.12 978.3" fill="none"/><path d="M374.72,27,190.14,66.21c-11,2.34-10.85,18.13.21,20.24l190.91,36.43a10.19,10.19,0,0,0,4.08,0L567.88,84c11-2.34,10.86-18.13-.21-20.24L374.72,27" transform="translate(0 -26.98)" fill="#fff"/><polygon points="744.14 46.72 758.1 902.21 400.12 978.3 386.16 122.81 744.14 46.72" fill="none"/><path d="M169.53,685.53,34.2,659.71l2,124.25c1.62,98.9,42.49,158.48,122.54,173.76L385,1001.15l-2.32-142.47-185.23-36q-25.72-4.9-26.28-38.33l-1.61-98.86" transform="translate(0 -26.98)" fill="#fff"/><polyline points="375.55 474.06 142.99 429.68 145.33 573.01 377.89 617.4 375.55 474.06" fill="#fff"/><path d="M374,289.7v.15l-1.08-.2L188.15,254.37C171,251.11,162.59,260.75,163,283l.23,14.14,1.39,85L29.31,356.37h-.06L27.17,229.43c-1.59-98,37.57-142.77,117.63-127.5l9.33,1.77,217.5,41.5v0Z" transform="translate(0 -26.98)" fill="#fff"/><path d="M617.8,98.56l-221.06,47,2.36,144.6L578.46,252c17.47-3.71,26.36,5.7,26.72,27.77l8.18,501.38c.36,22.12-8.16,35.37-25.62,39.08l-76.58,16.28V836L408.37,857.82l2.34,143.47,221.06-47c4.2-.89,8.29-1.92,12.26-3,73.81-21,109.89-82.84,108.37-176.08l-9-550.82C741.82,127,699.88,81.11,617.8,98.56" transform="translate(0 -26.98)" fill="#fff"/></g><path d="M971.43,611.24V544.81q0-7.5-3.47-10.69T955.83,531H905q-68.18,0-68.17-64.7V382.48q0-63.54,72.79-63.54h70.48q72.79,0,72.79,63.54v47.95H970.27V394q0-14.43-15.6-14.44H935q-15.6,0-15.6,14.44v64.7q0,7.53,3.47,10.69T935,472.6h49.68q37,0,53.15,15.89T1054,535.57v86.65q0,64.13-72.79,64.12h-69.9q-73.38,0-73.37-64.12V574.85h82.61v36.39q0,14.46,15.6,14.45h19.64Q971.43,625.69,971.43,611.24Z" transform="translate(0 -26.98)" fill="#fff"/><path d="M1099.08,318.94h151.36q72.8,0,72.79,63.54V494q0,64.13-72.79,64.13h-69.32V686.34h-82ZM1240.62,483V394q0-14.43-15-14.44h-44.48V497.44h44.48Q1240.61,497.44,1240.62,483Z" transform="translate(0 -26.98)" fill="#fff"/><path d="M1530,686.34l-12.71-66.43h-83.77l-12.71,66.43H1339.4l83.19-367.4h105.14l85.49,367.4Zm-84.92-126.51h60.08l-30-155.4Z" transform="translate(0 -26.98)" fill="#fff"/><path d="M1858.73,447.76h-83.18V390q0-14.43-15-14.44h-23.69q-15.6,0-15.6,14.44v225.3q0,8.1,3.47,11.26t12.13,3.18h23.69c5.38,0,9.24-1.06,11.55-3.18s3.47-5.86,3.47-11.26v-56h83.18V622.8q0,63.56-73.36,63.54h-73.95q-72.78,0-72.78-63.54V382.48q0-63.54,72.78-63.54h73.95q73.35,0,73.36,63.54Z" transform="translate(0 -26.98)" fill="#fff"/><path d="M1984.09,625.69h117.85v60.65H1901.48V318.94h195.83v60.65H1984.09v89.54h96.47v60.66h-96.47Z" transform="translate(0 -26.98)" fill="#fff"/><path d="M2190.73,318.94v367.4h195.83V318.94Zm169.15,322H2217.41v-31.8h142.47Zm0-130.41-85.35,31.13h85.35v29.13H2217.41v-28.9l85.12-30.69h-85.12V481.84h142.47Zm0-89q0,28.21-24.64,28.22h-93.19q-24.63,0-24.64-28.22V392.79q0-28.44,24.64-28.44h25.32V396.6H2245c-3.74,0-5.61,1.95-5.61,5.83v9.18c0,4,1.87,6.05,5.61,6.05h87.36c2.09,0,3.55-.45,4.37-1.34s1.23-2.47,1.23-4.71v-9.18c0-2.09-.41-3.59-1.23-4.49s-2.28-1.34-4.37-1.34H2310.6V364.35h24.64q24.65,0,24.64,28.44Z" transform="translate(0 -26.98)" fill="#fff"/><path d="M898.26,150.6H866.67v27.78h26.51v15.71H866.67v40.8H844v-101h54.29Z" transform="translate(0 -26.98)" fill="#fff"/><path d="M929.84,197.11v37.78H907.3v-101h41.59q20,0,20,17.46v28.26q0,14-12.7,16.82L974,234.89H949.69l-15.88-37.78Zm0-46.51v30.48h12.23a4.64,4.64,0,0,0,3.17-.88,3.82,3.82,0,0,0,1-2.94V154.57q0-4-4.12-4Z" transform="translate(0 -26.98)" fill="#fff"/><path d="M1001.27,133.93h21.28q20,0,20,17.46v65.88q0,17.61-20,17.62h-21.28q-20.16,0-20.16-17.62V151.39Q981.11,133.93,1001.27,133.93Zm18.58,80.32V154.57q0-4-4.13-4h-7.62q-4.29,0-4.29,4v59.68q0,4,4.29,4h7.62Q1019.85,218.22,1019.85,214.25Z" transform="translate(0 -26.98)" fill="#fff"/><path d="M1076.2,234.89h-20v-101H1081l16.67,57.14,16.66-57.14h24.77v101h-20V167.11L1106,213h-16.83l-13-45.72Z" transform="translate(0 -26.98)" fill="#fff"/></g></g></svg>